<svg xmlns="http://www.w3.org/2000/svg" width="32" height="32" viewBox="0 0 32 32" shape-rendering="crispEdges"><rect x="2" y="2" width="26" height="1" fill="#000000"/><rect x="2" y="3" width="1" height="26" fill="#000000"/><rect x="3" y="3" width="6" height="10" fill="#ffffff"/><rect x="9" y="3" width="1" height="1" fill="#000000"/><rect x="10" y="3" width="1" height="1" fill="#ffffff"/><rect x="11" y="3" width="1" height="1" fill="#000000"/><rect x="12" y="3" width="1" height="1" fill="#ffffff"/><rect x="13" y="3" width="1" height="1" fill="#000000"/><rect x="14" y="3" width="1" height="1" fill="#ffffff"/><rect x="15" y="3" width="1" height="1" fill="#000000"/><rect x="16" y="3" width="1" height="1" fill="#ffffff"/><rect x="17" y="3" width="1" height="1" fill="#000000"/><rect x="18" y="3" width="1" height="1" fill="#ffffff"/><rect x="19" y="3" width="1" height="1" fill="#000000"/><rect x="20" y="3" width="1" height="1" fill="#ffffff"/><rect x="21" y="3" width="1" height="1" fill="#000000"/><rect x="22" y="3" width="1" height="1" fill="#ffffff"/><rect x="23" y="3" width="1" height="1" fill="#000000"/><rect x="24" y="3" width="4" height="1" fill="#ffffff"/><rect x="28" y="3" width="1" height="1" fill="#000000"/><rect x="9" y="4" width="2" height="1" fill="#000000"/><rect x="11" y="4" width="1" height="1" fill="#ffffff"/><rect x="12" y="4" width="1" height="1" fill="#000000"/><rect x="13" y="4" width="1" height="1" fill="#ffffff"/><rect x="14" y="4" width="1" height="1" fill="#000000"/><rect x="15" y="4" width="1" height="1" fill="#ffffff"/><rect x="16" y="4" width="1" height="1" fill="#000000"/><rect x="17" y="4" width="1" height="1" fill="#ffffff"/><rect x="18" y="4" width="6" height="1" fill="#000000"/><rect x="24" y="4" width="5" height="9" fill="#ffffff"/><rect x="29" y="4" width="1" height="25" fill="#000000"/><rect x="9" y="5" width="1" height="1" fill="#000000"/><rect x="10" y="5" width="1" height="1" fill="#ffffff"/><rect x="11" y="5" width="1" height="1" fill="#000000"/><rect x="12" y="5" width="1" height="1" fill="#ffffff"/><rect x="13" y="5" width="1" height="1" fill="#000000"/><rect x="14" y="5" width="1" height="1" fill="#ffffff"/><rect x="15" y="5" width="1" height="1" fill="#000000"/><rect x="16" y="5" width="1" height="1" fill="#ffffff"/><rect x="17" y="5" width="2" height="1" fill="#000000"/><rect x="19" y="5" width="2" height="5" fill="#ffffff"/><rect x="21" y="5" width="1" height="1" fill="#000000"/><rect x="22" y="5" width="1" height="1" fill="#ffffff"/><rect x="23" y="5" width="1" height="1" fill="#000000"/><rect x="9" y="6" width="2" height="1" fill="#000000"/><rect x="11" y="6" width="1" height="1" fill="#ffffff"/><rect x="12" y="6" width="1" height="1" fill="#000000"/><rect x="13" y="6" width="1" height="1" fill="#ffffff"/><rect x="14" y="6" width="1" height="1" fill="#000000"/><rect x="15" y="6" width="1" height="1" fill="#ffffff"/><rect x="16" y="6" width="1" height="1" fill="#000000"/><rect x="17" y="6" width="1" height="1" fill="#ffffff"/><rect x="18" y="6" width="1" height="1" fill="#000000"/><rect x="21" y="6" width="3" height="1" fill="#000000"/><rect x="9" y="7" width="1" height="1" fill="#000000"/><rect x="10" y="7" width="1" height="1" fill="#ffffff"/><rect x="11" y="7" width="1" height="1" fill="#000000"/><rect x="12" y="7" width="1" height="1" fill="#ffffff"/><rect x="13" y="7" width="1" height="1" fill="#000000"/><rect x="14" y="7" width="1" height="1" fill="#ffffff"/><rect x="15" y="7" width="1" height="1" fill="#000000"/><rect x="16" y="7" width="1" height="1" fill="#ffffff"/><rect x="17" y="7" width="2" height="1" fill="#000000"/><rect x="21" y="7" width="1" height="1" fill="#000000"/><rect x="22" y="7" width="1" height="1" fill="#ffffff"/><rect x="23" y="7" width="1" height="1" fill="#000000"/><rect x="9" y="8" width="2" height="1" fill="#000000"/><rect x="11" y="8" width="1" height="1" fill="#ffffff"/><rect x="12" y="8" width="1" height="1" fill="#000000"/><rect x="13" y="8" width="1" height="1" fill="#ffffff"/><rect x="14" y="8" width="1" height="1" fill="#000000"/><rect x="15" y="8" width="1" height="1" fill="#ffffff"/><rect x="16" y="8" width="1" height="1" fill="#000000"/><rect x="17" y="8" width="1" height="1" fill="#ffffff"/><rect x="18" y="8" width="1" height="1" fill="#000000"/><rect x="21" y="8" width="3" height="1" fill="#000000"/><rect x="9" y="9" width="1" height="1" fill="#000000"/><rect x="10" y="9" width="1" height="1" fill="#ffffff"/><rect x="11" y="9" width="1" height="1" fill="#000000"/><rect x="12" y="9" width="1" height="1" fill="#ffffff"/><rect x="13" y="9" width="1" height="1" fill="#000000"/><rect x="14" y="9" width="1" height="1" fill="#ffffff"/><rect x="15" y="9" width="1" height="1" fill="#000000"/><rect x="16" y="9" width="1" height="1" fill="#ffffff"/><rect x="17" y="9" width="2" height="1" fill="#000000"/><rect x="21" y="9" width="1" height="1" fill="#000000"/><rect x="22" y="9" width="1" height="1" fill="#ffffff"/><rect x="23" y="9" width="1" height="1" fill="#000000"/><rect x="9" y="10" width="2" height="1" fill="#000000"/><rect x="11" y="10" width="1" height="1" fill="#ffffff"/><rect x="12" y="10" width="1" height="1" fill="#000000"/><rect x="13" y="10" width="1" height="1" fill="#ffffff"/><rect x="14" y="10" width="1" height="1" fill="#000000"/><rect x="15" y="10" width="1" height="1" fill="#ffffff"/><rect x="16" y="10" width="1" height="1" fill="#000000"/><rect x="17" y="10" width="1" height="1" fill="#ffffff"/><rect x="18" y="10" width="6" height="1" fill="#000000"/><rect x="9" y="11" width="1" height="1" fill="#000000"/><rect x="10" y="11" width="1" height="1" fill="#ffffff"/><rect x="11" y="11" width="1" height="1" fill="#000000"/><rect x="12" y="11" width="1" height="1" fill="#ffffff"/><rect x="13" y="11" width="1" height="1" fill="#000000"/><rect x="14" y="11" width="1" height="1" fill="#ffffff"/><rect x="15" y="11" width="1" height="1" fill="#000000"/><rect x="16" y="11" width="1" height="1" fill="#ffffff"/><rect x="17" y="11" width="1" height="1" fill="#000000"/><rect x="18" y="11" width="1" height="1" fill="#ffffff"/><rect x="19" y="11" width="1" height="1" fill="#000000"/><rect x="20" y="11" width="1" height="1" fill="#ffffff"/><rect x="21" y="11" width="1" height="1" fill="#000000"/><rect x="22" y="11" width="1" height="1" fill="#ffffff"/><rect x="23" y="11" width="1" height="1" fill="#000000"/><rect x="9" y="12" width="15" height="1" fill="#000000"/><rect x="3" y="13" width="26" height="3" fill="#ffffff"/><rect x="3" y="16" width="2" height="13" fill="#ffffff"/><rect x="5" y="16" width="22" height="1" fill="#000000"/><rect x="27" y="16" width="2" height="13" fill="#ffffff"/><rect x="5" y="17" width="1" height="12" fill="#000000"/><rect x="6" y="17" width="20" height="3" fill="#ffffff"/><rect x="26" y="17" width="1" height="10" fill="#000000"/><rect x="6" y="20" width="6" height="1" fill="#ffffff"/><rect x="12" y="20" width="2" height="1" fill="#000000"/><rect x="14" y="20" width="1" height="1" fill="#ffffff"/><rect x="15" y="20" width="2" height="1" fill="#000000"/><rect x="17" y="20" width="1" height="1" fill="#ffffff"/><rect x="18" y="20" width="2" height="1" fill="#000000"/><rect x="20" y="20" width="6" height="4" fill="#ffffff"/><rect x="6" y="21" width="7" height="2" fill="#ffffff"/><rect x="13" y="21" width="1" height="1" fill="#000000"/><rect x="14" y="21" width="2" height="1" fill="#ffffff"/><rect x="16" y="21" width="1" height="1" fill="#000000"/><rect x="17" y="21" width="2" height="1" fill="#ffffff"/><rect x="19" y="21" width="1" height="2" fill="#000000"/><rect x="13" y="22" width="2" height="1" fill="#000000"/><rect x="15" y="22" width="1" height="2" fill="#ffffff"/><rect x="16" y="22" width="2" height="1" fill="#000000"/><rect x="18" y="22" width="1" height="1" fill="#ffffff"/><rect x="6" y="23" width="8" height="2" fill="#ffffff"/><rect x="14" y="23" width="1" height="1" fill="#000000"/><rect x="16" y="23" width="1" height="1" fill="#000000"/><rect x="17" y="23" width="1" height="1" fill="#ffffff"/><rect x="18" y="23" width="2" height="1" fill="#000000"/><rect x="14" y="24" width="2" height="1" fill="#000000"/><rect x="16" y="24" width="1" height="1" fill="#ffffff"/><rect x="17" y="24" width="2" height="1" fill="#000000"/><rect x="19" y="24" width="7" height="2" fill="#ffffff"/><rect x="6" y="25" width="9" height="1" fill="#ffffff"/><rect x="15" y="25" width="1" height="1" fill="#000000"/><rect x="16" y="25" width="2" height="1" fill="#ffffff"/><rect x="18" y="25" width="1" height="1" fill="#000000"/><rect x="6" y="26" width="20" height="1" fill="#ffffff"/><rect x="6" y="27" width="19" height="2" fill="#ffffff"/><rect x="25" y="27" width="2" height="2" fill="#000000"/><rect x="2" y="29" width="4" height="1" fill="#000000"/><rect x="6" y="29" width="20" height="1" fill="#ffffff"/><rect x="26" y="29" width="4" height="1" fill="#000000"/></svg>
